<?xml version="1.0" encoding="UTF-8"?>
<svg xmlns="http://www.w3.org/2000/svg" xmlns:xlink="http://www.w3.org/1999/xlink" viewBox="0 0 100 100" width="100px" height="100px">
<g id="surface36679567">
<path style=" stroke:none;fill-rule:nonzero;fill:rgb(18.039216%,80.000001%,44.313726%);fill-opacity:1;" d="M 100 49.878906 C 100 57.128906 95.144531 62 87.921875 62 C 85.257812 62 82.925781 61.335938 81.039062 60.132812 C 80.738281 61.816406 80.210938 63.285156 79.304688 64.648438 C 77.695312 67.089844 74.394531 70 67.816406 70 C 65.328125 70 63.152344 69.617188 60.972656 68.789062 L 58.386719 67.8125 L 58.386719 62 C 58.386719 62 36.804688 62 35.808594 62 C 33.875 62 32.339844 61.703125 31.089844 61.230469 C 30.890625 61.8125 30.671875 62.378906 30.382812 62.925781 C 29.148438 65.324219 27.441406 66.898438 24.492188 68.367188 L 22.761719 69.226562 L 21.007812 68.402344 L 16.339844 66.199219 L 5.804688 60.351562 L 5.824219 60.351562 C 2.09375 58.394531 0 54.785156 0 49.886719 C 0 43.0625 4.5 38.148438 11.121094 37.492188 L 11.121094 30 L 32.035156 30 L 32.035156 38.792969 C 33.746094 38.28125 35.492188 38 37.324219 38 C 40.054688 38 41.949219 38.65625 43.289062 39.542969 L 44.347656 39.257812 C 47.527344 38.386719 50.152344 38 52.863281 38 C 56.4375 38 59.183594 38.992188 61.023438 40.957031 C 61.289062 41.238281 61.519531 41.527344 61.730469 41.816406 C 64.1875 39.539062 67.984375 38 73.515625 38 C 75.890625 38 78.160156 38.238281 80.871094 38.773438 L 82.625 39.121094 C 84.230469 38.398438 86.074219 38 88.117188 38 C 95.222656 38 100 42.773438 100 49.878906 Z M 15.121094 34 L 15.121094 41.679688 C 14.371094 41.484375 13.472656 41.417969 12.65625 41.417969 C 7.394531 41.417969 4 44.753906 4 49.886719 C 4 55.21875 7.199219 57.992188 13.351562 58 C 15.402344 58 17.421875 57.804688 20 57.3125 L 20 34 Z M 15.121094 45.730469 L 15.121094 53.816406 C 14.402344 53.914062 13.675781 53.949219 13.117188 53.949219 C 10.539062 53.949219 9.132812 52.46875 9.132812 49.792969 C 9.132812 47.042969 10.601562 45.472656 13.148438 45.472656 C 13.769531 45.472656 14.53125 45.535156 15.121094 45.730469 Z M 22.972656 42 L 22.972656 51.832031 C 22.972656 56.171875 22.746094 57.820312 22.027344 59.242188 C 21.34375 60.636719 20.265625 61.550781 18.042969 62.582031 L 22.714844 64.785156 C 24.9375 63.679688 26.015625 62.679688 26.828125 61.09375 C 27.703125 59.445312 28 57.53125 28 53.550781 L 28 42 Z M 23 39.117188 L 28.035156 39.117188 L 28.035156 34 L 23 34 Z M 30.992188 47.191406 C 32.859375 46.21875 34.847656 45.714844 36.617188 45.714844 C 37.824219 45.714844 38.261719 46.03125 38.261719 46.910156 L 38.261719 47.976562 C 32.390625 48.476562 30 50.046875 30 53.445312 C 30 56.585938 31.796875 58 35.808594 58 C 37.792969 58 40.496094 57.777344 42.640625 57.464844 L 42.640625 47.628906 C 42.640625 45.613281 42.511719 44.675781 42.109375 43.949219 C 41.394531 42.660156 39.78125 42 37.324219 42 C 35.117188 42 33.097656 42.441406 30.984375 43.445312 Z M 38.472656 51.144531 L 38.472656 54.386719 C 37.542969 54.542969 36.890625 54.605469 36.179688 54.605469 C 34.871094 54.605469 34.28125 54.160156 34.28125 53.21875 C 34.28125 51.960938 35.308594 51.457031 38.472656 51.144531 Z M 45.398438 58 L 50 58 L 50 46.3125 C 50.953125 46.023438 51.6875 45.960938 52.335938 45.960938 C 54.03125 45.960938 54.820312 46.664062 54.820312 48.550781 L 54.820312 58 L 59.402344 58 L 59.402344 48.355469 C 59.402344 45.894531 59.089844 44.742188 58.105469 43.691406 C 57.058594 42.574219 55.296875 42 52.863281 42 C 50.519531 42 48.207031 42.347656 45.398438 43.113281 Z M 62.390625 60.535156 L 62.390625 65.046875 C 64.152344 65.714844 65.855469 66 67.816406 66 C 71.679688 66 74.398438 64.820312 75.96875 62.445312 C 77.042969 60.820312 77.40625 58.855469 77.40625 54.664062 L 77.40625 53.332031 C 77.375 52.664062 77.375 51.996094 77.34375 51.328125 L 77.308594 48.660156 L 77.246094 46.601562 L 77.246094 46.089844 C 78.257812 46.183594 77.027344 45.96875 78.367188 46.222656 L 80.09375 42.699219 C 77.675781 42.21875 75.675781 42 73.515625 42 C 66.15625 42 62 45.140625 62 50.695312 C 62 55.171875 64.808594 57.996094 69.226562 57.996094 C 70.53125 57.996094 71.515625 57.800781 72.496094 57.328125 L 72.496094 57.421875 C 72.496094 60.53125 71.089844 61.835938 67.785156 61.835938 C 65.917969 61.835938 64.152344 61.425781 62.390625 60.535156 Z M 72.398438 46.316406 L 72.433594 47.933594 L 72.464844 50.1875 C 72.464844 50.855469 72.5 51.488281 72.5 52.0625 L 72.5 53.75 C 71.851562 53.941406 71.292969 54.0625 70.605469 54.0625 C 68.378906 54.0625 67.136719 52.664062 67.136719 50.226562 C 67.136719 48.515625 67.757812 47.304688 68.964844 46.640625 C 69.75 46.160156 70.898438 45.910156 71.878906 45.941406 L 72.398438 45.941406 Z M 80 50.152344 C 80 54.992188 83.023438 58 87.921875 58 C 92.886719 58 96 54.871094 96 49.878906 C 96 45.007812 93.011719 42 88.117188 42 C 83.121094 42 80.007812 45.128906 80 50.152344 Z M 88.015625 54.148438 C 86.113281 54.148438 84.992188 52.632812 84.992188 49.992188 C 84.992188 47.355469 86.105469 45.839844 88.046875 45.839844 C 89.925781 45.839844 91.003906 47.386719 91.003906 49.992188 C 91.007812 52.632812 89.894531 54.148438 88.015625 54.148438 Z M 88.015625 54.148438 "/>
</g>
</svg>
