<svg xmlns="http://www.w3.org/2000/svg" viewBox="0 0 602.71997 228.73"><defs><linearGradient id="a" x1="497.64001" x2="497.64001" y1="176.72" y2="355.39001" gradientTransform="translate(-196.28 -151.69)" gradientUnits="userSpaceOnUse"><stop offset="0" stop-color="#62c1f7"/><stop offset="1" stop-color="#2e61a3"/></linearGradient></defs><path d="M240.8 177.23c-1.54 4.34-5.66 8.75-5.66 8.75h56.91v-23.59s-6.67 6.59-14.94 6.59c-17.56 0-18.64-13.59-18.64-15.42v-35.25s13.08 0 22.36 10V103.2c-8.23 9.32-22.36 8.67-22.36 8.67V78.31c0-1.25 1.71-15.18 18.64-15.18 9 0 14.94 6.72 14.94 6.72v-21.1h-56.91l5.66 5.56c2.92 5.58 3.43 107.74 0 122.92zm236.7-82.25c.8-2.89.53-10.56.25-15.09.06-8-14-12.58-15.27-.8v75.78c1.18 10.82 14 7.52 14.62-1.63.55-5.74 1.14-13.72.4-18.15a27.11 27.11 0 0 0-5.28-5.27h25.06v32.57c0 32.59-54.42 33.09-54.42 0V74.06c0-32.25 54.42-32.75 54.42 0v26.53h-22.23a26.53 26.53 0 0 0 2.45-5.61z"/><path d="M29.32 25.08c-2.66 0-4.08 2.13-4.25 4.37-2.57 1.77-4.4 5-4.21 9.68-17.55-.28-13.48 26.54 6.29 16.15L42.29 70.1c1.13-1.25 2.28-2.49 3.46-3.72 1.01-1.07 2.11-2.1 3.17-3.15a75.6 75.6 0 0 0-23.63 48.46 189.44 189.44 0 0 0-10.83 4c3.52.84 7.09 1.57 10.54 2.2v.36a75.31 75.31 0 0 0 20.72 52 76.16 76.16 0 0 0 17.15 13.55 285.75 285.75 0 0 0-5.17 4.39l-.13.12c-2.37 2.06-4.57 4-6.53 5.85h-12.8a25.15 25.15 0 0 0-1.08-2.55l15.16-14.8a165.83 165.83 0 0 1-6.6-6.56 146.15 146.15 0 0 1-3.42-3.68l-15.14 14.82c-19.77-10.4-23.84 16.43-6.29 16.15-.5 13 14.17 14.45 17.72 6.16h.13a8.08 8.08 0 0 1-1.69 2.8l-.06-.15v.18c-1.31 1.32-2.9 1.69-4.74 2.25-2 2-3.55 3.82-3.55 3.82l4.63.27-.15 6.75 3.52-1.53.54 3 3.46-2 .61 3 2.45-1.41 2.48 2.28 1.46-2.45 3 1.22s-1.05-3.53-2.54-7.56c1.51-1.7 3.06-3.37 4.63-5l.14-.14c1.81-1.85 3.65-3.64 5.51-5.36h95.6c4.67 2.5 9.44 4.87 14.14 6.94 7 3.06 12.55 4.48 16.93 4.83h.13c15.77 1.2 16.33-11.59 16.33-11.59s-3.46.05-8-.15h69.37l4.3 2.47.2.12c2.37 1.35 4.78 2.69 7.14 3.94a114.62 114.62 0 0 0 10.57 5.08l.26.1a20.3 20.3 0 0 0 6.6 1.71c10.51.48 17.12-13.33 17.12-13.33s-5.74.17-11.84-.08h55.67c2.2 1.29 4.53 2.65 6.9 4l.22.12c2.37 1.35 4.78 2.69 7.13 3.94a112.07 112.07 0 0 0 10.55 5l.26.11a20.31 20.31 0 0 0 6.59 1.71c10.51.47 17.12-13.92 17.12-13.92s-6.9.48-13.6.28h-.25a49.88 49.88 0 0 1-8.2-.82 12.4 12.4 0 0 1-1.61-.48h59.97l2.54 1.94.22.17a329.3 329.3 0 0 0 4.35 3.25c9 6.55 19.73 13.18 33.36 15.64h.05a62.93 62.93 0 0 0 10.33 1c1.8 0 3.54-.06 5.25-.2a54.82 54.82 0 0 0 11.89-2.32h.13a56.22 56.22 0 0 0 14.61-7.15l.14-.1a68.56 68.56 0 0 0 11.24-9.68l.16-.18c.72-.78 1.43-1.56 2.12-2.36h38.95c5.85.04 5.67-9.5.04-9.5h-31.78a107.76 107.76 0 0 0 6.32-11l.27.26-.2-.39c-.06-.13.09-.19.13-.28 2 .78 3.93 1.44 5.69 2-.53 1.35-1.37 3.63-1.37 3.63l15.2-3.39-11.2-9.78-.63 4.71s-1.93-1.07-5-3.13c.8-1.88 1.54-3.73 2.19-5.51l.5.34c-.12-.22-.26-.42-.39-.63 1.18-3.25 2.13-6.3 2.85-9a47 47 0 0 0 1.83-10.65v-.7l.93 1.73 3.35 6.24 2.22-3.44 2.5 2.82 1.61-4.21 4.95.05-4.4-5.46.41-.23-.46.18c-.86-7.86-7.05-17.16-9.89-18.15a6.94 6.94 0 0 0-5.05.28 4.62 4.62 0 0 0-2.08 3.53 14.28 14.28 0 0 1 1.56-4.88c5.86.84 12.17-3.18 12.17-13.71 0-18.17-19-16.75-21.66-4h-5.22v-9.67h-6.67v9.59h-16.22c0-36.11 40.25-55.58 40.25-55.58l1.61 5.07 9.81-11.07-15.81-4.75 2 4.75c-16.49 4.58-54.11 20.9-54.11 65.58 0 33.52 19.94 52.54 37.84 62.39a88.16 88.16 0 0 1-10.29 16.46h-83.8c-.9-.56-1.79-1.09-2.66-1.61l-.12-.07a56.08 56.08 0 0 0-6.63-3.41h-.07c-.48-.2-.95-.39-1.42-.55h-13.37a34.81 34.81 0 0 0-6.12 3.78 44.24 44.24 0 0 1 9.06 1.58c0 .11 0 .22-.06.33l.16-.29.51.19.26.1h-61.85c-5.17-3.11-10.27-6-14.05-6.79-12.53-3.19-17.95 6.79-17.95 6.79H271.5c-5.37-3.43-10.87-6.8-15.15-7.74a21.84 21.84 0 0 0-20.13 7.33 30.36 30.36 0 0 1 9.4.41h-56.26a9.47 9.47 0 0 0 2.14-8.18h12.64a84.49 84.49 0 0 1-2.09-9c-.76-7.37.37-16.42 1.17-20.71 3 8.54 10.17 29.71 10.17 29.71h21.75a33.35 33.35 0 0 1-3.5-8.75c-1.59-10.46-1.54-107 1-122.92a17.84 17.84 0 0 1 2.5-5.56h-24.5s.75 18.62-2.48 28c-3.17-10.27-5.26-26.27-5.4-28h-11.04c0-4.82-3.51-9.79-11.12-9.67a13.47 13.47 0 0 0-.53-4.51H573.4c5.81 0 5.63-9.54 0-9.54zm9.78 9.49h123.24c-.59 2.7-.16 6.2 1.95 10.44L149.13 59.8c3.52 3.33 6.85 6.75 10 10.25l15.14-14.82a20.21 20.21 0 0 0 6.65 2.28c1.25 9.68 1.36 32.85 1 56.28-1.94-.72-3.94-1.42-6-2.1A75.6 75.6 0 0 0 49.9 62.25c.81-.8 1.58-1.61 2.41-2.4L37.15 45.01c2.11-4.24 2.54-7.73 1.95-10.44zm142.79 82.31c-.52 29.23-1.72 57.94-2.32 60.35h-.01c-.24.85-.51 1.6-.8 2.33a22.59 22.59 0 0 0-4.48 1.83l-15.14-14.82a182.9 182.9 0 0 1-10 10.25l15.16 14.79a25.15 25.15 0 0 0-1.08 2.55h-6a154.6 154.6 0 0 1-10.94-6l-.13-.07a246.7 246.7 0 0 1-6.26-3.87l.15-.27-.27.19-.93-.61a75.56 75.56 0 0 0 37.43-65.22v-.33c1.85-.33 3.73-.7 5.62-1.1zm333.97 3.21h16.24v9.55h6.67v-9.55h5.27c.1.37.19.74.3 1.09-4 8.75-5.05 21.23 3.33 28.91a180.94 180.94 0 0 1-6.44 19.14c-11.41-10.02-25.37-26.84-25.37-49.14zm-387.3 68.5a499.4 499.4 0 0 0 8.84 5.57h-16.84a23.74 23.74 0 0 0 2-3.47c2-.62 4-1.33 6-2.1zm-52.98 1.06c1.09.39 2.2.75 3.31 1.1a22.65 22.65 0 0 0 2 3.41H69.64c2-1.6 4-3.11 5.94-4.51zM459.5 203.7h58.22c-12.93 10.24-35 14.69-58.22 0z"/><path fill="url(#a)" stroke="#000" stroke-width="2.5" d="M573.4 34.57H29.32c-5.81 0-5.63-9.54 0-9.54H573.4c5.63 0 5.81 9.54 0 9.54zm0 159.59H29.32c-5.63 0-5.81 9.54 0 9.54H573.4c5.81 0 5.63-9.54 0-9.54zM100.65 42.69a75.62 75.62 0 1 0 0 151.24 75.62 75.62 0 0 0 0-151.24zm74.2 143.29h29.29a84.49 84.49 0 0 1-2.09-9c-.76-7.37.37-16.42 1.17-20.71 3 8.54 10.17 29.71 10.17 29.71h21.75a33.35 33.35 0 0 1-3.5-8.75c-1.59-10.46-1.54-107 1-122.92.5-1.98 1.35-3.86 2.5-5.56h-24.5s.75 18.62-2.48 28c-3.17-10.27-5.26-26.27-5.4-28h-27.91s3.39 3 5.37 5.1c4 11.88.54 118.63-.65 123.38a21 21 0 0 1-4.72 8.75zM240.8 54.31c3 5.58 3.43 107.74 0 122.92-1.54 4.34-5.66 8.75-5.66 8.75h56.91v-23.59s-6.67 6.59-14.94 6.59c-17.56 0-18.64-13.59-18.64-15.42v-35.25s13.08 0 22.36 10V103.2c-8.23 9.32-22.36 8.67-22.36 8.67V78.31c0-1.25 1.71-15.18 18.64-15.18 9 0 14.94 6.72 14.94 6.72v-21.1h-56.91zm122 70.06c0 8.26-8 22.94-22.69 22.94h-9.5v29.92c1.28 4.08 6.5 8.75 6.5 8.75H307.3s4.2-4.79 5.7-8.75c1.91-7.86 3.76-108.78 1.55-122.92a194.1 194.1 0 0 0-5.9-5.56h33.68c11.06 0 20.47 9.24 20.47 21.78zm-14.66.72v-51.5c0-9.5-17.49-10.86-17.49-10.86v72.83s17.5-.35 17.5-10.47zm94.72 37.3c0 33.09 54.42 32.59 54.42 0v-32.57h-25.06c2 1.5 3.77 3.28 5.28 5.27.74 4.43.15 12.41-.4 18.15-.62 9.15-13.44 12.45-14.62 1.63V79.09c1.28-11.78 15.33-7.24 15.27.8.28 4.53.55 12.2-.25 15.09a26.53 26.53 0 0 1-2.45 5.61h22.23V74.06c0-32.75-54.42-32.25-54.42 0zm56.75-47.08c0 44.67 35.42 63.58 54.22 69.39-.53 1.35-1.37 3.63-1.37 3.63l15.2-3.39-11.2-9.78-.63 4.71s-40-22-40-59.78h16.25v9.55h6.67v-9.55h5.27c2.81 12.22 21.61 13.39 21.61-4.78s-19-16.75-21.66-4h-5.22v-9.67h-6.67v9.67h-16.22c0-36.11 40.25-55.58 40.25-55.58l1.61 5.07 9.81-11.07-15.8-4.75 2 4.75c-16.5 4.58-54.12 20.91-54.12 65.58z"/><path fill="#ff0409" stroke="#000" stroke-width="2.5" d="M405.46 185.98H446s-8.87-9.56-10.54-12.67c-1.67-3.11-32.16-124.56-32.16-124.56h-10.84s-29.62 123.73-31.82 126.56c-2.2 2.83-9.92 10.67-9.92 10.67h30.42s-6.67-8-7.83-11.67c-.24-.55-.14-2.52.16-5.32l5.78-35.9h25.06s11.61 42.12 9.83 44.35c-1.78 2.23-8.68 8.54-8.68 8.54zm-24.74-62.73 10.56-44.11 11.16 44.11z"/><path fill="#fc0" stroke="#000" stroke-width="2.5" d="M186.94 115.75a275.37 275.37 0 0 1-34.55 5.56s-17.78-12-51.67-12-51.67 12-51.67 12a275.37 275.37 0 0 1-34.55-5.56c14.72-6.11 37.55-11.88 37.55-11.88s10.28-35.12 48.67-35.12 48.67 35.12 48.67 35.12 22.83 5.77 37.55 11.88z"/><path fill="#fff" d="M92.82 176.91c-5.49 2.68-17.11 5.6-10.41 8.58 19.87 5.26 38.06-.36 38.06-.36l-9.59-8.53s-12.57-2.37-18.06.31z"/><path fill="#fff" stroke="#000" stroke-width="2.5" d="M100.72 170.64c-40.33 0-52-36.62-51.54-52.37 0-8.07 7-9 51.54-9s51.54.89 51.54 9c.46 15.75-11.21 52.37-51.54 52.37z"/><path fill="#ff0409" stroke="#000" stroke-width="2.5" d="M149.39 103.87a287.85 287.85 0 0 0-48.67-3.79 287.85 287.85 0 0 0-48.67 3.79 37.56 37.56 0 0 1 3.16-7.41 326.43 326.43 0 0 1 45.51-3.57 323.82 323.82 0 0 1 45.51 3.6 47.46 47.46 0 0 1 3.16 7.38z"/><path fill="#fff" stroke="#000" stroke-width="2.5" d="M124.64 173.06a68.83 68.83 0 0 1-47.84 0l3.08-6.28c6.73 2.82 16.45 3.86 20.84 3.86a56.3 56.3 0 0 0 20.84-3.86zm0 10.69s-1.84 19.67-23.92 19.67c-22.08 0-23.92-19.67-23.92-19.67s7.84 3.64 23.92 3.64c16.08 0 23.92-3.64 23.92-3.64z"/><path fill="none" stroke="#000" stroke-width="2.5" d="m88.82 169.31-3.27 6.28a67.56 67.56 0 0 0 30.34 0l-3-6.23a56.88 56.88 0 0 1-24.07-.05z"/><path fill="none" stroke="#000" stroke-width="2.5" d="m97.24 170.5-.52 6.81-2.73 9.91a104.23 104.23 0 0 0 13.46 0l-2.73-9.91-.51-6.7a43.41 43.41 0 0 1-6.97-.11z"/><circle cx="78.449959" cy="135.88" r="15.88"/><circle cx="122.98996" cy="135.88" r="15.88"/><circle cx="100.89996" cy="155.37" r="6.4400001"/><path fill="#fff" stroke="#000" stroke-width="2.5" d="M20.86 197.54c-17.55.28-13.48-26.54 6.29-16.15l15.14-14.82c3.16 3.5 6.5 6.92 10 10.25l-15.14 14.79c9.94 20-16.97 23.47-16.29 5.93zm159.72 0c8.61.14 12-6.25 10.92-11.56h-16.57a17.81 17.81 0 0 0 3.86-6.42 22.07 22.07 0 0 0-4.5 1.83l-15.14-14.82a182.9 182.9 0 0 1-10 10.25l15.16 14.79c-9.96 20 16.95 23.47 16.27 5.93zM20.86 39.08C3.31 38.8 7.38 65.62 27.15 55.23l15.14 14.82c3.16-3.51 6.5-6.93 10-10.25L37.15 45.01c9.94-20-16.97-23.47-16.29-5.93zm159.72 0c7.61-.12 11.16 4.85 11.12 9.67h-16.85s4.38 3.3 5.37 5.1c.33 1.2.57 2.42.72 3.66a20 20 0 0 1-6.65-2.28l-15.14 14.82c-3.16-3.51-6.5-6.93-10-10.25l15.16-14.79c-9.96-20 16.95-23.47 16.27-5.93z"/><g stroke="#000"><path fill="#af6528" stroke-width="2.5" d="M28.72 212.6s1.51-1.77 3.55-3.82c2.84-.86 5.09-1.25 6.6-5.43 1.26-.69 2.39-1 3.18-.6 3.5 1.73 8.67 19 8.67 19l-3-1.22-1.46 2.45-2.48-2.28-2.45 1.41-.61-3-3.46 2-.54-3-3.52 1.53.15-6.75z"/><path fill="#af6528" stroke-width="2.5" d="M42.05 202.75s18.11-18.34 34.75-29.44a132.46 132.46 0 0 0 18 3.91s-26.83 14.55-46.62 37a46.67 46.67 0 0 0-6.13-11.47zm69.23-26.05s29.52 21.86 56.88 33.94c32.48 14.17 33.39-6.75 33.39-6.75a142.74 142.74 0 0 1-19.41-1.16c-25.63-3.75-57.8-29.46-57.8-29.46-3.97 1.18-8.2 2.46-13.06 3.43zm124.94 17.05s5.67-.72 10.08.59c4.2 1.19 36.34 22.77 45.69 22.77 10.51.48 17.12-13.33 17.12-13.33s-14.72.44-22.06-1.14c-7.34-1.58-21.7-14.22-30.7-16.22a21.84 21.84 0 0 0-20.13 7.33z"/><path fill="none" stroke-width="1.5" d="M36.98 206.31a25.73 25.73 0 0 1 1.82 13.46m11.92-25.54s3.42 5.5 2.17 15.5m4.5-21.99s4.33 6 4 13.15m3.83-18.66a18.53 18.53 0 0 1 3.83 13.08m2.34-18s5.75 5.75 4.33 12.33m3.17-16.33a19.5 19.5 0 0 1 5.08 11.71m33.5-3.38s7.42-2.08 11.42-5.33m-5.71 9.08s8.29-2.79 9.79-6.27m-1.58 11.11s6.5-1.67 8.66-6.25m-.83 11.08s6.08-3 7.17-7.17m.5 11.42s5.56-2.67 8.4-6.13m7.51 3.46a15.64 15.64 0 0 1-7.83 7.42m18.58-3.08a18.45 18.45 0 0 1-7 8.83m15.25-6.5a15.4 15.4 0 0 1-7.16 9.75m19-9.75s-1.67 8.33-8.67 12.33m69.58-29.25a27.79 27.79 0 0 0-8.5 7.59m15.59-5.09s-6.45 3.89-9.5 9.5m17.25-4.75s-4.84 5.34-9.67 7.67m19-2.33s-6.06 6.22-12 7.5m17.83-5.17a24.32 24.32 0 0 1-10.08 9m21.42-7.58s-4 8.62-11.25 13.2"/><path fill="#af6528" stroke-width="2.5" d="M329.05 194.16a56.29 56.29 0 0 1 9.89 1.71c4.19 1.2 36.34 22.78 45.68 22.78 10.51.47 17.12-13.92 17.12-13.92s-14.72 1-22-.55c-7.28-1.55-23.69-14.81-32.69-16.81a15.66 15.66 0 0 0-18 6.79z"/><path fill="none" stroke-width="1.5" d="M347.19 187.93a27.68 27.68 0 0 0-8.5 7.58m15.58-5.08s-6.44 3.89-9.5 9.5m17.25-4.75s-4.83 5.33-9.66 7.66m19-2.33s-6.06 6.22-12 7.5m17.83-5.17a24.32 24.32 0 0 1-10.08 9m21.41-7.53s-4 8.63-11.23 13.21"/><path fill="#af6528" stroke-width="2.5" d="M412.97 192.25s6.56.5 9.67 1.81c14.61 4.81 32.58 31.25 66.26 31.67 51 .41 69.69-64.42 68.94-75.17a21.25 21.25 0 0 1-10.16-.47c-8.17 29.3-24.13 63.47-58.36 63.07-25.49-1.29-43.91-20.14-56.86-24.67h-13.37a34.81 34.81 0 0 0-6.12 3.76z"/><path fill="#af6528" stroke-width="2.5" d="M555.4 111.44c-8-3-22.39 25.2-7.72 38.65 2.37 1.5 8.5.94 10.16.47-.33-7.08-6.41-10-5.91-16.58 0-5.25 11.2-18.02 3.47-22.54z"/><path fill="#af6528" stroke-width="2.5" d="M554.01 130.37a6.94 6.94 0 0 1 5.05-.28c2.84 1 9 10.3 9.89 18.16l4.45 5.5-4.95-.05-1.61 4.21-2.5-2.82-2.22 3.44-4.28-8a30.62 30.62 0 0 0-4-9.62 11.21 11.21 0 0 1-2-6.74 4.6 4.6 0 0 1 2.17-3.8z"/><path fill="none" stroke-width="1.5" d="M425.06 188.49c-1.44 1.69-2.89 3.81-3.09 5.67m12.5-5.85a63.4 63.4 0 0 0-6.42 9.42m13.09-6s-3.42 6.83-7.34 9.91m13.34-5.66s-1.17 7.16-6.92 10.16m16.33-3.44a36 36 0 0 1-11.58 6.44m18.33-1.91a16.11 16.11 0 0 1-9.25 7.16m20.92-3.58s-.92 6.08-8.58 9.67m18.75-7.17s1.16 5.83-6.67 11.5m20.33-12.42s-.41 7.67-4.66 13.17m14.25-15.58a29.38 29.38 0 0 1-2.42 13.66m14.4-22.26s2.35 8.1.43 15.1m7.56-23.83s4.53 7 3.94 14.08m1.51-22.24s5.75 4.4 6.42 11.74m-1.07-21.53s6.35 2.82 9 8.68m-5.01-19.07s7.29 1.56 10.42 7.31m-7.59-15.78s7.72 1.31 10 6.06m-2.66-21.09a21.47 21.47 0 0 0-5.16 8.67m3.08-14.25s-5.5.5-9.17 3.91m0-10.25s6.5-2.41 11.67-2.33m-8.25-6.17a50.18 50.18 0 0 1 12.57-3.08m2.38 14a42.78 42.78 0 0 1-8.2 5.88m11.42-.96s-5.25 3.91-9.92 5.33m13.98 2.08s-6.45 2.59-9.7 4.42m11.39 0a43.85 43.85 0 0 1-10.69 4.25"/></g></svg>
